HIERARCHY
ROOT Hips
{
	OFFSET 0.000000 0.000000 0.000000
	CHANNELS 6 Xposition Yposition Zposition Xrotation Yrotation Zrotation
	JOINT LeftUpLeg_virtual
	{
		OFFSET 0.000000 0.000000 0.000000
		CHANNELS 3 Xrotation Yrotation Zrotation
		JOINT LeftUpLeg
		{
			OFFSET 11.394100 -6.187798 -0.413800
			CHANNELS 3 Xrotation Yrotation Zrotation
			JOINT LeftLeg
			{
				OFFSET 0.430247 -32.302673 3.732800
				CHANNELS 3 Xrotation Yrotation Zrotation
				JOINT LeftFoot
				{
					OFFSET -0.430247 -48.264931 -6.423300
					CHANNELS 3 Xrotation Yrotation Zrotation
					JOINT LeftToeBase
					{
						OFFSET 4.230900 -16.068199 23.438400
						CHANNELS 3 Xrotation Yrotation Zrotation
						JOINT LeftToe_End
						{
							OFFSET 4.510700 0.695400 19.974600
							CHANNELS 3 Xrotation Yrotation Zrotation
							End Site
							{
								OFFSET 0 0 0
							}
						}
					}
				}
			}
		}
	}
	JOINT RightUpLeg_virtual
	{
		OFFSET 0.000000 0.000000 0.000000
		CHANNELS 3 Xrotation Yrotation Zrotation
		JOINT RightUpLeg
		{
			OFFSET -11.333700 -6.187798 -0.413800
			CHANNELS 3 Xrotation Yrotation Zrotation
			JOINT RightLeg
			{
				OFFSET -0.430392 -32.302628 3.733000
				CHANNELS 3 Xrotation Yrotation Zrotation
				JOINT RightFoot
				{
					OFFSET 0.430392 -48.264973 -6.423500
					CHANNELS 3 Xrotation Yrotation Zrotation
					JOINT RightToeBase
					{
						OFFSET -4.230900 -16.068199 23.438400
						CHANNELS 3 Xrotation Yrotation Zrotation
						JOINT RightToe_End
						{
							OFFSET -4.510700 0.695400 19.974600
							CHANNELS 3 Xrotation Yrotation Zrotation
							End Site
							{
								OFFSET 0 0 0
							}
						}
					}
				}
			}
		}
	}
	JOINT Spine_virtual
	{
		OFFSET 0.000000 0.000000 0.000000
		CHANNELS 3 Xrotation Yrotation Zrotation
		JOINT Spine
		{
			OFFSET -0.002400 12.777504 0.315300
			CHANNELS 3 Xrotation Yrotation Zrotation
			JOINT Spine1
			{
				OFFSET -0.002067 5.816869 0.032633
				CHANNELS 3 Xrotation Yrotation Zrotation
				JOINT Spine1_split
				{
					OFFSET -0.002067 5.816869 0.032633
					CHANNELS 3 Xrotation Yrotation Zrotation
					JOINT Spine2
					{
						OFFSET -0.002067 5.816869 0.032633
						CHANNELS 3 Xrotation Yrotation Zrotation
						JOINT Neck_virtual
						{
							OFFSET 0.000000 0.000000 0.000000
							CHANNELS 3 Xrotation Yrotation Zrotation
							JOINT Neck
							{
								OFFSET -0.003700 21.199493 -0.826900
								CHANNELS 3 Xrotation Yrotation Zrotation
								JOINT Head
								{
									OFFSET 0.000000 20.442200 4.834800
									CHANNELS 3 Xrotation Yrotation Zrotation
									JOINT HeadTop_End
									{
										OFFSET 0.000000 34.668396 4.968400
										CHANNELS 3 Xrotation Yrotation Zrotation
										End Site
										{
											OFFSET 0 0 0
										}
									}
								}
							}
						}
						JOINT LeftShoulder_virtual
						{
							OFFSET 0.000000 0.000000 0.000000
							CHANNELS 3 Xrotation Yrotation Zrotation
							JOINT LeftShoulder
							{
								OFFSET 3.288150 8.794197 -1.372250
								CHANNELS 3 Xrotation Yrotation Zrotation
								JOINT LeftShoulder_split
								{
									OFFSET 3.288150 8.794197 -1.372250
									CHANNELS 3 Xrotation Yrotation Zrotation
									JOINT LeftArm
									{
										OFFSET 11.953299 -2.279007 -0.146200
										CHANNELS 3 Xrotation Yrotation Zrotation
										JOINT LeftForeArm
										{
											OFFSET 18.448900 0.000000 0.000000
											CHANNELS 3 Xrotation Yrotation Zrotation
											JOINT LeftHand
											{
												OFFSET 29.527798 0.000000 0.000000
												CHANNELS 3 Xrotation Yrotation Zrotation
												End Site
												{
													OFFSET 0 0 0
												}
											}
										}
									}
								}
							}
						}
						JOINT RightShoulder_virtual
						{
							OFFSET 0.000000 0.000000 0.000000
							CHANNELS 3 Xrotation Yrotation Zrotation
							JOINT RightShoulder
							{
								OFFSET -3.249400 8.794197 -1.372250
								CHANNELS 3 Xrotation Yrotation Zrotation
								JOINT RightShoulder_split
								{
									OFFSET -3.249400 8.794197 -1.372250
									CHANNELS 3 Xrotation Yrotation Zrotation
									JOINT RightArm
									{
										OFFSET -11.953299 -2.279007 -0.146200
										CHANNELS 3 Xrotation Yrotation Zrotation
										JOINT RightForeArm
										{
											OFFSET -18.448900 0.000000 0.000000
											CHANNELS 3 Xrotation Yrotation Zrotation
											JOINT RightHand
											{
												OFFSET -29.527802 0.000000 0.000000
												CHANNELS 3 Xrotation Yrotation Zrotation
												End Site
												{
													OFFSET 0 0 0
												}
											}
										}
									}
								}
							}
						}
					}
				}
			}
		}
	}
}
MOTION
Frames: 10
Frame Time: 0.03333333
-0.580018 59.975624 -0.644463 0.000000 0.000000 0.000000 177.941960 -6.983396 171.618011 -90.140431 -14.828233 10.364439 100.132226 7.287807 1.454653 -5.006576 1.199950 -13.924296 -11.358051 -0.338689 1.301751 0.000000 0.000000 0.000000 177.453697 -3.638688 172.113773 -69.052427 19.966115 -21.735443 99.439522 -1.064446 -1.001386 -15.031739 -4.148254 31.065032 -2.432580 -1.594851 -0.112064 0.000000 0.000000 0.000000 178.354462 -5.258395 168.691466 6.616517 4.493265 -3.580126 8.115281 7.064111 -4.032457 0.523072 -3.623084 0.735553 0.000000 0.000000 0.000000 7.985638 6.606910 -3.866951 -2.916708 23.896873 6.796512 5.925050 33.852924 -24.715062 0.000000 0.000000 0.000000 8.545687 6.874405 -4.089136 0.863963 -13.733454 -10.337437 -3.191436 -1.464998 -3.844731 3.378230 3.135708 -31.372001 36.916254 -40.376025 1.277997 0.000000 0.000000 0.000000 8.039577 6.914132 -4.408100 5.033884 -18.345157 13.446989 0.847726 1.489500 -1.325811 13.827520 -12.773510 60.211437 34.294202 50.271476 -8.507825 0.000000 0.000000 0.000000 
-0.592163 59.978889 -0.617741 0.000000 0.000000 0.000000 177.935813 -6.978241 171.629745 -90.137296 -14.836458 10.368101 100.127718 7.287563 1.470998 -4.984444 1.189117 -13.918790 -11.356281 -0.339677 1.303557 0.000000 0.000000 0.000000 177.446949 -3.635401 172.123977 -69.056293 19.957794 -21.737166 99.438334 -1.064576 -0.999321 -15.036504 -4.145155 31.074885 -2.423143 -1.589369 -0.116765 0.000000 0.000000 0.000000 178.336253 -5.250561 168.706246 6.608992 4.491457 -3.570400 8.103543 7.063073 -4.021197 0.497075 -3.628018 0.738140 0.000000 0.000000 0.000000 7.984098 6.607969 -3.857647 -2.871285 23.913107 6.773747 5.906459 33.853238 -24.699772 0.000000 0.000000 0.000000 8.543077 6.873340 -4.078381 0.866212 -13.754550 -10.348844 -3.204298 -1.476950 -3.855870 3.341339 3.166414 -31.369204 36.909936 -40.342687 1.265475 0.000000 0.000000 0.000000 8.026910 6.911571 -4.398048 5.036859 -18.342919 13.431909 0.859484 1.467670 -1.327363 13.810246 -12.771524 60.208247 34.281515 50.248004 -8.506357 0.000000 0.000000 0.000000 
-0.610753 59.986797 -0.597038 0.000000 0.000000 0.000000 177.906088 -6.992996 171.632818 -90.128369 -14.839074 10.354405 100.112398 7.289973 1.485954 -4.959084 1.172981 -13.903518 -11.361138 -0.340542 1.303300 0.000000 0.000000 0.000000 177.418330 -3.653452 172.126983 -69.064161 19.955304 -21.749204 99.445020 -1.066228 -0.995360 -15.023399 -4.129387 31.101509 -2.419430 -1.584446 -0.130644 0.000000 0.000000 0.000000 178.301159 -5.260848 168.713814 6.600080 4.480745 -3.560519 8.088488 7.064079 -4.002844 0.493578 -3.622510 0.743370 0.000000 0.000000 0.000000 7.970470 6.612755 -3.840852 -2.786501 23.920492 6.736137 5.921727 33.853320 -24.730640 0.000000 0.000000 0.000000 8.533725 6.874369 -4.060921 0.864126 -13.801581 -10.372907 -3.215628 -1.471659 -3.869554 3.302421 3.221742 -31.372725 36.896836 -40.318805 1.252227 0.000000 0.000000 0.000000 8.006409 6.913576 -4.379448 5.045367 -18.344061 13.390459 0.876534 1.459125 -1.329403 13.774273 -12.738291 60.236975 34.258156 50.161640 -8.501160 0.000000 0.000000 0.000000 
-0.630681 59.997063 -0.584934 0.000000 0.000000 0.000000 177.858003 -7.025915 171.624813 -90.118602 -14.832394 10.325578 100.089660 7.296311 1.496149 -4.942702 1.156329 -13.877968 -11.354996 -0.340110 1.295881 0.000000 0.000000 0.000000 177.371297 -3.689822 172.118445 -69.068177 19.961161 -21.769597 99.460791 -1.072262 -0.989917 -15.005012 -4.109784 31.139440 -2.418194 -1.580562 -0.150300 0.000000 0.000000 0.000000 178.253293 -5.290595 168.710863 6.595401 4.464201 -3.552194 8.075068 7.069783 -3.979685 0.508174 -3.613845 0.742982 0.000000 0.000000 0.000000 7.949965 6.622784 -3.819163 -2.673215 23.916836 6.695804 5.979049 33.860048 -24.813889 0.000000 0.000000 0.000000 8.522002 6.878751 -4.039232 0.857530 -13.869543 -10.407778 -3.223565 -1.452078 -3.875110 3.259801 3.290519 -31.379883 36.878391 -40.310346 1.240736 0.000000 0.000000 0.000000 7.984605 6.922229 -4.354981 5.058074 -18.350475 13.326395 0.892876 1.462202 -1.341405 13.719065 -12.671558 60.297600 34.222096 50.013452 -8.490986 0.000000 0.000000 0.000000 
-0.649499 60.007832 -0.576103 0.000000 0.000000 0.000000 177.796750 -7.074085 171.607192 -90.113097 -14.821599 10.281918 100.065229 7.300390 1.504334 -4.932983 1.138020 -13.853329 -11.328060 -0.338092 1.282348 0.000000 0.000000 0.000000 177.312640 -3.739586 172.099047 -69.062563 19.974251 -21.794763 99.484786 -1.086004 -0.982859 -14.988966 -4.096989 31.180435 -2.411918 -1.579136 -0.169583 0.000000 0.000000 0.000000 178.196849 -5.340907 168.700714 6.597877 4.447293 -3.546251 8.067416 7.081468 -3.953860 0.521220 -3.606098 0.741100 0.000000 0.000000 0.000000 7.929784 6.638897 -3.795793 -2.543203 23.904769 6.668368 6.085537 33.878913 -24.953376 0.000000 0.000000 0.000000 8.514263 6.887634 -4.015444 0.848044 -13.950036 -10.449266 -3.220475 -1.428637 -3.869244 3.211367 3.364080 -31.387315 36.857856 -40.326489 1.235439 0.000000 0.000000 0.000000 7.968412 6.938188 -4.327919 5.073819 -18.369601 13.244784 0.895484 1.465288 -1.360787 13.645769 -12.572041 60.380914 34.175463 49.814509 -8.478491 0.000000 0.000000 0.000000 
-0.665032 60.015594 -0.566223 0.000000 0.000000 0.000000 177.729568 -7.133348 171.582289 -90.114463 -14.814745 10.224852 100.039472 7.296421 1.513080 -4.926236 1.115241 -13.833522 -11.293918 -0.336877 1.272858 0.000000 0.000000 0.000000 177.247657 -3.801180 172.069131 -69.048752 19.992896 -21.821623 99.515323 -1.107481 -0.974548 -14.980558 -4.097975 31.222598 -2.396687 -1.579920 -0.183261 0.000000 0.000000 0.000000 178.136606 -5.407137 168.682067 6.609236 4.435434 -3.542864 8.068777 7.100252 -3.928144 0.527506 -3.601470 0.744679 0.000000 0.000000 0.000000 7.916521 6.660465 -3.773913 -2.409649 23.885682 6.665199 6.243414 33.911496 -25.147742 0.000000 0.000000 0.000000 8.517505 6.901031 -3.991392 0.837662 -14.032677 -10.492555 -3.210966 -1.402839 -3.855179 3.148870 3.428388 -31.390207 36.834353 -40.373648 1.239387 0.000000 0.000000 0.000000 7.964027 6.960053 -4.301258 5.090854 -18.406970 13.151137 0.892991 1.465477 -1.388937 13.558629 -12.443139 60.481352 34.123844 49.581743 -8.469671 0.000000 0.000000 0.000000 
-0.674937 60.021408 -0.558136 0.000000 0.000000 0.000000 177.663479 -7.201553 171.552454 -90.122925 -14.817030 10.159647 100.011707 7.283560 1.519563 -4.921032 1.087833 -13.814064 -11.266901 -0.338032 1.271196 0.000000 0.000000 0.000000 177.183563 -3.874375 172.031141 -69.022723 20.012092 -21.846623 99.544946 -1.138383 -0.964446 -14.980451 -4.116773 31.264685 -2.379726 -1.582894 -0.188320 0.000000 0.000000 0.000000 178.076064 -5.484385 168.656591 6.627212 4.432377 -3.541448 8.081838 7.124633 -3.903347 0.526800 -3.589600 0.752519 0.000000 0.000000 0.000000 7.915360 6.685867 -3.754942 -2.282159 23.861442 6.695955 6.445376 33.956900 -25.385727 0.000000 0.000000 0.000000 8.535138 6.917861 -3.968421 0.828901 -14.108035 -10.535883 -3.200202 -1.380413 -3.838743 3.062827 3.473708 -31.381530 36.810584 -40.454326 1.257295 0.000000 0.000000 0.000000 7.974670 6.985122 -4.277379 5.108752 -18.465329 13.048618 0.894694 1.472656 -1.418269 13.469276 -12.290066 60.599699 34.070876 49.326752 -8.466056 0.000000 0.000000 0.000000 
-0.678709 60.024364 -0.548836 0.000000 0.000000 0.000000 177.604644 -7.280284 171.516678 -90.136210 -14.829090 10.090663 99.980985 7.262156 1.521764 -4.915002 1.056828 -13.794511 -11.250647 -0.340709 1.272008 0.000000 0.000000 0.000000 177.128566 -3.958072 171.988507 -68.978374 20.028422 -21.868264 99.565150 -1.177503 -0.954090 -14.991842 -4.153732 31.305045 -2.366844 -1.587814 -0.185820 0.000000 0.000000 0.000000 178.022146 -5.564299 168.625117 6.647521 4.440109 -3.541145 8.107185 7.151544 -3.879961 0.530456 -3.573570 0.756452 0.000000 0.000000 0.000000 7.930105 6.712850 -3.739176 -2.169827 23.834826 6.763462 6.678489 34.014130 -25.651752 0.000000 0.000000 0.000000 8.568119 6.936012 -3.947140 0.823457 -14.169714 -10.576165 -3.184621 -1.359376 -3.831235 2.952983 3.491566 -31.353283 36.785217 -40.564702 1.289513 0.000000 0.000000 0.000000 8.000110 7.010208 -4.256925 5.127532 -18.544739 12.942969 0.898112 1.489024 -1.443122 13.386010 -12.119266 60.741432 34.012426 49.043596 -8.459885 0.000000 0.000000 0.000000 
-0.679698 60.025047 -0.536060 0.000000 0.000000 0.000000 177.558827 -7.364688 171.474057 -90.152220 -14.848087 10.023089 99.947463 7.236789 1.517318 -4.908051 1.027546 -13.771284 -11.241878 -0.342827 1.267612 0.000000 0.000000 0.000000 177.086670 -4.047962 171.945928 -68.916376 20.040260 -21.888916 99.569760 -1.221242 -0.943703 -15.015963 -4.202119 31.342673 -2.352165 -1.592993 -0.177541 0.000000 0.000000 0.000000 177.979184 -5.644251 168.589805 6.668665 4.456768 -3.541390 8.143367 7.178746 -3.858643 0.531777 -3.555238 0.760092 0.000000 0.000000 0.000000 7.960272 6.738776 -3.726229 -2.082482 23.805779 6.865297 6.925129 34.077129 -25.926498 0.000000 0.000000 0.000000 8.613828 6.953408 -3.928514 0.821817 -14.214256 -10.613169 -3.165341 -1.346790 -3.832749 2.827096 3.476994 -31.301691 36.751790 -40.682867 1.327701 0.000000 0.000000 0.000000 8.038973 7.033327 -4.240330 5.146065 -18.641487 12.838594 0.903890 1.522141 -1.465518 13.308666 -11.943130 60.908471 33.944227 48.728100 -8.443537 0.000000 0.000000 0.000000 
-0.680154 60.024948 -0.524231 0.000000 0.000000 0.000000 177.527449 -7.452073 171.428159 -90.167711 -14.867039 9.961730 99.912697 7.214024 1.504532 -4.905629 1.006677 -13.739876 -11.237002 -0.342731 1.254283 0.000000 0.000000 0.000000 177.058666 -4.140450 171.905698 -68.844229 20.047106 -21.911237 99.561980 -1.264213 -0.932937 -15.045846 -4.251625 31.380379 -2.334344 -1.597710 -0.167049 0.000000 0.000000 0.000000 177.948312 -5.723142 168.553496 6.688836 4.478740 -3.542672 8.188102 7.204366 -3.839958 0.523795 -3.532209 0.759365 0.000000 0.000000 0.000000 8.002429 6.763140 -3.715955 -2.023263 23.775033 6.992106 7.164979 34.137661 -26.192799 0.000000 0.000000 0.000000 8.668450 6.969574 -3.913062 0.822551 -14.242780 -10.647243 -3.145264 -1.338846 -3.833346 2.706910 3.434611 -31.229479 36.707684 -40.793441 1.365766 0.000000 0.000000 0.000000 8.088075 7.053976 -4.227902 5.163390 -18.750430 12.738333 0.908218 1.564174 -1.482058 13.227988 -11.773893 61.094348 33.864454 48.388284 -8.414790 0.000000 0.000000 0.000000 
